<?xml version="1.0" encoding="UTF-8"?>
<svg xmlns="http://www.w3.org/2000/svg" xmlns:xlink="http://www.w3.org/1999/xlink" width="236" height="520" viewBox="0 0 236 520"><defs><linearGradient id="right-card" x1="0%" y1="0%" x2="100%" y2="100%"><stop offset="0%" stop-color="#F8FBFE"/><stop offset="100%" stop-color="#EEF4FA"/></linearGradient><linearGradient id="right-arrow" x1="0%" y1="0%" x2="100%" y2="0%"><stop offset="0%" stop-color="#DCE5EE" stop-opacity="0.35"/><stop offset="100%" stop-color="#C9D7E3" stop-opacity="0.80"/></linearGradient><marker id="right-arrowhead" markerWidth="8" markerHeight="8" refX="6" refY="4" orient="auto"><path d="M 0 0 L 8 4 L 0 8 Z" fill="#374151"/></marker><marker id="right-grayhead" markerWidth="8" markerHeight="8" refX="6" refY="4" orient="auto"><path d="M 0 0 L 8 4 L 0 8 Z" fill="#9CA3AF"/></marker><filter id="right-blur" x="-20%" y="-20%" width="140%" height="140%"><feGaussianBlur stdDeviation="10"/></filter><radialGradient id="right-hotspot" cx="50%" cy="50%" r="50%"><stop offset="0%" stop-color="#D7191C"/><stop offset="28%" stop-color="#F46D43"/><stop offset="55%" stop-color="#FDAE61"/><stop offset="78%" stop-color="#ABD9E9"/><stop offset="100%" stop-color="#2C7BB6"/></radialGradient><radialGradient id="right-disc" cx="50%" cy="42%" r="70%"><stop offset="0%" stop-color="#F8FAFC"/><stop offset="65%" stop-color="#D8E3EE"/><stop offset="100%" stop-color="#B6C8D8"/></radialGradient></defs><g transform="translate(0 0)"><rect x="0" y="0" width="236" height="520" rx="18" ry="18" fill="url(#right-card)" stroke="none"/><text x="118" y="34" text-anchor="middle" font-family="Arial, Helvetica, sans-serif" font-size="28" font-weight="700" fill="#111827" font-style="normal"><tspan x="118">Physics-guided</tspan><tspan x="118" dy="35">outcomes</tspan></text><text x="118" y="80" text-anchor="middle" font-family="Arial, Helvetica, sans-serif" font-size="16" font-weight="400" fill="#111827" style="">Mechanism landscape</text><rect x="38" y="92" width="108" height="72" rx="8" ry="8" fill="#FFFFFF" stroke="#6B7280" stroke-width="1.2"/><clipPath id="right-mech-clip"><rect x="38" y="92" width="108" height="72" rx="8" ry="8"/></clipPath><g clip-path="url(#right-mech-clip)"><rect x="38" y="92" width="108" height="72" fill="#EEF6FA"/><rect x="18" y="90" width="72" height="84" fill="#2C6A96" filter="url(#right-blur)" opacity="0.95"/><rect x="92" y="84" width="70" height="90" fill="#EA6A4C" filter="url(#right-blur)" opacity="0.95"/><rect x="72" y="96" width="24" height="66" fill="#F6F7F9" filter="url(#right-blur)" opacity="0.85"/></g><text x="118" y="210" text-anchor="middle" font-family="Arial, Helvetica, sans-serif" font-size="16" font-weight="400" fill="#111827" style="">Design window</text><rect x="38" y="222" width="108" height="72" rx="8" ry="8" fill="#FFFFFF" stroke="#6B7280" stroke-width="1.2"/><path d="M 72 273 A 86 58 0 0 1 129 240 L 118 231 A 72 46 0 0 0 68 259 Z" fill="#B9CCD9" stroke="#5B7082" stroke-width="1.0"/><path d="M 112 266 A 86 58 0 0 1 129 240 L 118 231 A 72 46 0 0 0 105 255 Z" fill="#E57A57" stroke="#A95035" stroke-width="1.0"/><path d="M 84 282 A 48 32 0 0 1 104 255 L 98 249 A 38 24 0 0 0 80 273 Z" fill="#E7EBEF" stroke="#5B7082" stroke-width="0.9"/><text x="118" y="338" text-anchor="middle" font-family="Arial, Helvetica, sans-serif" font-size="16" font-weight="400" fill="#111827" style="">Safe region</text><rect x="38" y="350" width="108" height="72" rx="8" ry="8" fill="#E2F3EA" stroke="#6B7280" stroke-width="1.2"/><path d="M 70 401 A 82 54 0 0 1 132 374 L 123 365 A 68 43 0 0 0 66 390 Z" fill="none" stroke="#586A79" stroke-width="4.2"/><path d="M 92 407 A 42 27 0 0 1 112 391" fill="none" stroke="#586A79" stroke-width="4.2"/></g></svg>
