<?xml version="1.0" encoding="UTF-8"?>
<svg xmlns="http://www.w3.org/2000/svg" xmlns:xlink="http://www.w3.org/1999/xlink" width="1250" height="120" viewBox="0 0 1250 120"><defs><linearGradient id="bottom-card" x1="0%" y1="0%" x2="100%" y2="100%"><stop offset="0%" stop-color="#F8FBFE"/><stop offset="100%" stop-color="#EEF4FA"/></linearGradient><linearGradient id="bottom-arrow" x1="0%" y1="0%" x2="100%" y2="0%"><stop offset="0%" stop-color="#DCE5EE" stop-opacity="0.35"/><stop offset="100%" stop-color="#C9D7E3" stop-opacity="0.80"/></linearGradient><marker id="bottom-arrowhead" markerWidth="8" markerHeight="8" refX="6" refY="4" orient="auto"><path d="M 0 0 L 8 4 L 0 8 Z" fill="#374151"/></marker><marker id="bottom-grayhead" markerWidth="8" markerHeight="8" refX="6" refY="4" orient="auto"><path d="M 0 0 L 8 4 L 0 8 Z" fill="#9CA3AF"/></marker><filter id="bottom-blur" x="-20%" y="-20%" width="140%" height="140%"><feGaussianBlur stdDeviation="10"/></filter><radialGradient id="bottom-hotspot" cx="50%" cy="50%" r="50%"><stop offset="0%" stop-color="#D7191C"/><stop offset="28%" stop-color="#F46D43"/><stop offset="55%" stop-color="#FDAE61"/><stop offset="78%" stop-color="#ABD9E9"/><stop offset="100%" stop-color="#2C7BB6"/></radialGradient><radialGradient id="bottom-disc" cx="50%" cy="42%" r="70%"><stop offset="0%" stop-color="#F8FAFC"/><stop offset="65%" stop-color="#D8E3EE"/><stop offset="100%" stop-color="#B6C8D8"/></radialGradient></defs><g transform="translate(0 0)"><text x="68" y="18" text-anchor="middle" font-family="Arial, Helvetica, sans-serif" font-size="15" font-weight="400" fill="#111827" style="">COMSOL data</text><text x="256" y="18" text-anchor="middle" font-family="Arial, Helvetica, sans-serif" font-size="15" font-weight="400" fill="#111827" style="">Multi-task surrogate</text><text x="446" y="18" text-anchor="middle" font-family="Arial, Helvetica, sans-serif" font-size="15" font-weight="400" fill="#111827" style="">Physics consistency</text><text x="638" y="18" text-anchor="middle" font-family="Arial, Helvetica, sans-serif" font-size="15" font-weight="400" fill="#111827" style="">Mechanism landscape</text><text x="826" y="18" text-anchor="middle" font-family="Arial, Helvetica, sans-serif" font-size="15" font-weight="400" fill="#111827" style="">Design window</text><text x="1014" y="18" text-anchor="middle" font-family="Arial, Helvetica, sans-serif" font-size="15" font-weight="400" fill="#111827" style="">Unseen validation</text><text x="1202" y="18" text-anchor="middle" font-family="Arial, Helvetica, sans-serif" font-size="15" font-weight="400" fill="#111827" style="">Web tool</text><rect x="0" y="28" width="116" height="68" rx="8" ry="8" fill="#F5FAFD" stroke="#6B7280" stroke-width="1.2"/><line x1="20" y1="44" x2="20" y2="80" stroke="#B4C3D0" stroke-width="0.8"/><line x1="34" y1="44" x2="34" y2="80" stroke="#B4C3D0" stroke-width="0.8"/><line x1="48" y1="44" x2="48" y2="80" stroke="#B4C3D0" stroke-width="0.8"/><line x1="62" y1="44" x2="62" y2="80" stroke="#B4C3D0" stroke-width="0.8"/><line x1="76" y1="44" x2="76" y2="80" stroke="#B4C3D0" stroke-width="0.8"/><line x1="90" y1="44" x2="90" y2="80" stroke="#B4C3D0" stroke-width="0.8"/><line x1="12" y1="44" x2="80" y2="44" stroke="#B4C3D0" stroke-width="0.8"/><line x1="12" y1="56" x2="80" y2="56" stroke="#B4C3D0" stroke-width="0.8"/><line x1="12" y1="68" x2="80" y2="68" stroke="#B4C3D0" stroke-width="0.8"/><line x1="12" y1="80" x2="80" y2="80" stroke="#B4C3D0" stroke-width="0.8"/><circle cx="86" cy="50" r="18" fill="url(#bottom-hotspot)" stroke="#5B7082" stroke-width="1.0"/><ellipse cx="86" cy="50" rx="30" ry="11" fill="none" stroke="#5B7082" stroke-width="1.0"/><text x="58" y="112" text-anchor="middle" font-family="Arial, Helvetica, sans-serif" font-size="14" font-weight="400" fill="#111827" font-style="normal"><tspan x="58">small simulation-derived</tspan><tspan x="58" dy="17.5">disk-TENG sample</tspan></text><rect x="188" y="28" width="116" height="68" rx="8" ry="8" fill="#F5FAFD" stroke="#6B7280" stroke-width="1.2"/><rect x="206" y="40" width="12" height="44" rx="5" fill="#74A7CD" stroke="#3F6B91" stroke-width="0.9"/><circle cx="248" cy="44" r="7" fill="#D1D5DB" stroke="#9CA3AF" stroke-width="0.9"/><circle cx="248" cy="60" r="7" fill="#D1D5DB" stroke="#9CA3AF" stroke-width="0.9"/><circle cx="248" cy="76" r="7" fill="#D1D5DB" stroke="#9CA3AF" stroke-width="0.9"/><circle cx="280" cy="54" r="6.5" fill="#E56B48" stroke="#9CA3AF" stroke-width="0.9"/><circle cx="280" cy="70" r="6.5" fill="#E56B48" stroke="#9CA3AF" stroke-width="0.9"/><circle cx="280" cy="86" r="6.5" fill="#4D86B3" stroke="#9CA3AF" stroke-width="0.9"/><line x1="255" y1="44" x2="273.5" y2="54" stroke="#C7D2DA" stroke-width="0.8"/><line x1="255" y1="44" x2="273.5" y2="70" stroke="#C7D2DA" stroke-width="0.8"/><line x1="255" y1="44" x2="273.5" y2="86" stroke="#C7D2DA" stroke-width="0.8"/><line x1="255" y1="60" x2="273.5" y2="54" stroke="#C7D2DA" stroke-width="0.8"/><line x1="255" y1="60" x2="273.5" y2="70" stroke="#C7D2DA" stroke-width="0.8"/><line x1="255" y1="60" x2="273.5" y2="86" stroke="#C7D2DA" stroke-width="0.8"/><line x1="255" y1="76" x2="273.5" y2="54" stroke="#C7D2DA" stroke-width="0.8"/><line x1="255" y1="76" x2="273.5" y2="70" stroke="#C7D2DA" stroke-width="0.8"/><line x1="255" y1="76" x2="273.5" y2="86" stroke="#C7D2DA" stroke-width="0.8"/><rect x="378" y="28" width="116" height="68" rx="8" ry="8" fill="#F7FBFD" stroke="#6B7280" stroke-width="1.2"/><text x="437" y="70" text-anchor="middle" font-family="Arial, Helvetica, sans-serif" font-size="13" font-style="italic" fill="#111827">FOMS<tspan baseline-shift="sub" font-size="9">direct</tspan> ≈ FOMS<tspan baseline-shift="sub" font-size="9">phys</tspan></text><rect x="570" y="28" width="116" height="68" rx="8" ry="8" fill="#FFFFFF" stroke="#6B7280" stroke-width="1.2"/><clipPath id="bottom-mech-clip"><rect x="570" y="28" width="116" height="68" rx="8" ry="8"/></clipPath><g clip-path="url(#bottom-mech-clip)"><rect x="570" y="28" width="116" height="68" fill="#EEF6FA"/><rect x="548" y="16" width="72" height="88" fill="#2C6A96" filter="url(#bottom-blur)" opacity="0.95"/><rect x="636" y="16" width="70" height="88" fill="#EA6A4C" filter="url(#bottom-blur)" opacity="0.95"/><rect x="620" y="20" width="18" height="88" fill="#F6F7F9" filter="url(#bottom-blur)" opacity="0.78"/></g><rect x="758" y="28" width="116" height="68" rx="8" ry="8" fill="#EAF5EF" stroke="#6B7280" stroke-width="1.2"/><path d="M 782 86 A 88 58 0 0 1 840 50 L 828 40 A 72 46 0 0 0 776 72 Z" fill="#B9CCD9" stroke="#5B7082" stroke-width="1.0"/><path d="M 810 88 A 62 40 0 0 1 842 54 L 833 47 A 51 31 0 0 0 807 77 Z" fill="none" stroke="#5B7082" stroke-width="1.2"/><path d="M 824 76 A 72 46 0 0 1 842 54 L 833 47 A 56 34 0 0 0 819 67 Z" fill="#E57A57" stroke="#A95035" stroke-width="0.9"/><rect x="946" y="28" width="116" height="68" rx="8" ry="8" fill="#F8FBFD" stroke="#6B7280" stroke-width="1.2"/><line x1="977" y1="36" x2="1040" y2="92" stroke="#94A3B8" stroke-width="1.2"/><line x1="981" y1="82" x2="1036" y2="42" stroke="#94A3B8" stroke-width="1.0"/><path d="M 984 84 L 1030 46" stroke="#4D86B3" stroke-width="2.1" fill="none"/><circle cx="988" cy="80" r="2.3" fill="#4D86B3"/><circle cx="1004" cy="66" r="2.3" fill="#4D86B3"/><circle cx="1021" cy="54" r="2.3" fill="#4D86B3"/><circle cx="1032" cy="46" r="2.3" fill="#4D86B3"/><text x="957" y="56" text-anchor="start" font-family="Arial, Helvetica, sans-serif" font-size="11" font-weight="400" fill="#475569" font-style="italic"><tspan x="957">parity</tspan><tspan x="957" dy="13.75">comparison</tspan></text><rect x="1134" y="28" width="116" height="68" rx="8" ry="8" fill="#F8FBFD" stroke="#6B7280" stroke-width="1.2"/><rect x="1166" y="38" width="84" height="46" rx="6" fill="#FFFFFF" stroke="#CBD5E1" stroke-width="1.0"/><line x1="1174" y1="50" x2="1242" y2="50" stroke="#B4C3D0" stroke-width="1.0"/><line x1="1174" y1="60" x2="1235" y2="60" stroke="#B4C3D0" stroke-width="1.0"/><line x1="1174" y1="70" x2="1218" y2="70" stroke="#B4C3D0" stroke-width="1.0"/><line x1="118" y1="62" x2="162" y2="62" stroke="#334155" stroke-width="1.6" marker-end="url(#bottom-arrowhead)"/><line x1="308" y1="62" x2="352" y2="62" stroke="#334155" stroke-width="1.6" marker-end="url(#bottom-arrowhead)"/><line x1="500" y1="62" x2="544" y2="62" stroke="#334155" stroke-width="1.6" marker-end="url(#bottom-arrowhead)"/><line x1="690" y1="62" x2="734" y2="62" stroke="#334155" stroke-width="1.6" marker-end="url(#bottom-arrowhead)"/><line x1="878" y1="62" x2="922" y2="62" stroke="#334155" stroke-width="1.6" marker-end="url(#bottom-arrowhead)"/><line x1="1066" y1="62" x2="1110" y2="62" stroke="#334155" stroke-width="1.6" marker-end="url(#bottom-arrowhead)"/></g></svg>
