<?xml version="1.0" encoding="UTF-8"?>
<svg xmlns="http://www.w3.org/2000/svg" xmlns:xlink="http://www.w3.org/1999/xlink" width="360" height="520" viewBox="0 0 360 520"><defs><linearGradient id="left-card" x1="0%" y1="0%" x2="100%" y2="100%"><stop offset="0%" stop-color="#F8FBFE"/><stop offset="100%" stop-color="#EEF4FA"/></linearGradient><linearGradient id="left-arrow" x1="0%" y1="0%" x2="100%" y2="0%"><stop offset="0%" stop-color="#DCE5EE" stop-opacity="0.35"/><stop offset="100%" stop-color="#C9D7E3" stop-opacity="0.80"/></linearGradient><marker id="left-arrowhead" markerWidth="8" markerHeight="8" refX="6" refY="4" orient="auto"><path d="M 0 0 L 8 4 L 0 8 Z" fill="#374151"/></marker><marker id="left-grayhead" markerWidth="8" markerHeight="8" refX="6" refY="4" orient="auto"><path d="M 0 0 L 8 4 L 0 8 Z" fill="#9CA3AF"/></marker><filter id="left-blur" x="-20%" y="-20%" width="140%" height="140%"><feGaussianBlur stdDeviation="10"/></filter><radialGradient id="left-hotspot" cx="50%" cy="50%" r="50%"><stop offset="0%" stop-color="#D7191C"/><stop offset="28%" stop-color="#F46D43"/><stop offset="55%" stop-color="#FDAE61"/><stop offset="78%" stop-color="#ABD9E9"/><stop offset="100%" stop-color="#2C7BB6"/></radialGradient><radialGradient id="left-disc" cx="50%" cy="42%" r="70%"><stop offset="0%" stop-color="#F8FAFC"/><stop offset="65%" stop-color="#D8E3EE"/><stop offset="100%" stop-color="#B6C8D8"/></radialGradient></defs><g transform="translate(0 0)"><rect x="0" y="0" width="360" height="520" rx="18" ry="18" fill="url(#left-card)" stroke="none"/><text x="180" y="40" text-anchor="middle" font-family="Arial, Helvetica, sans-serif" font-size="29" font-weight="700" fill="#111827" font-style="normal"><tspan x="180">Disk TENG inputs</tspan></text><g id="teng-device"><path d="M 52 262 A 114 40 0 0 0 280 262 L 280 284 A 114 40 0 0 1 52 284 Z" fill="#D9E1E8" fill-opacity="1.0" stroke="#6B7280" stroke-width="1.3"/><ellipse cx="166" cy="262" rx="114" ry="40" fill="#D9E1E8" fill-opacity="1.0" stroke="#6B7280" stroke-width="1.3"/><path d="M 52 284 A 114 40 0 0 0 280 284" stroke="#6B7280" stroke-width="1.3" fill="none"/><path d="M 52 238 A 114 40 0 0 0 280 238 L 280 260 A 114 40 0 0 1 52 260 Z" fill="#E5EBF1" fill-opacity="0.98" stroke="#6B7280" stroke-width="1.3"/><ellipse cx="166" cy="238" rx="114" ry="40" fill="#E5EBF1" fill-opacity="0.98" stroke="#6B7280" stroke-width="1.3"/><path d="M 52 260 A 114 40 0 0 0 280 260" stroke="#6B7280" stroke-width="1.3" fill="none"/><path d="M 52 214 A 114 40 0 0 0 280 214 L 280 236 A 114 40 0 0 1 52 236 Z" fill="#F5F7FA" fill-opacity="0.95" stroke="#6B7280" stroke-width="1.3"/><ellipse cx="166" cy="214" rx="114" ry="40" fill="#F5F7FA" fill-opacity="0.95" stroke="#6B7280" stroke-width="1.3"/><path d="M 52 236 A 114 40 0 0 0 280 236" stroke="#6B7280" stroke-width="1.3" fill="none"/><ellipse cx="166" cy="178" rx="124" ry="48" fill="#F6F9FC" stroke="#4B5563" stroke-width="1.6"/><ellipse cx="166" cy="178" rx="114" ry="40" fill="url(#left-disc)" stroke="#4B5563" stroke-width="1.4"/><path d="M 170.71 147.04 A 90 31 0 0 1 206.86 150.38 L 178.71 168.2 A 28 11 0 0 0 167.47 167.02 Z" fill="#4D86B3" stroke="#3F6B91" stroke-width="1.0"/><path d="M 215.02 152 A 90 31 0 0 1 241.48 161.12 L 189.48 172.01 A 28 11 0 0 0 181.25 168.77 Z" fill="#4D86B3" stroke="#3F6B91" stroke-width="1.0"/><path d="M 246.19 163.93 A 90 31 0 0 1 255.88 176.38 L 193.96 177.42 A 28 11 0 0 0 190.95 173.01 Z" fill="#4D86B3" stroke="#3F6B91" stroke-width="1.0"/><path d="M 255.88 179.62 A 90 31 0 0 1 246.19 192.07 L 190.95 182.99 A 28 11 0 0 0 193.96 178.58 Z" fill="#4D86B3" stroke="#3F6B91" stroke-width="1.0"/><path d="M 241.48 194.88 A 90 31 0 0 1 215.02 204 L 181.25 187.23 A 28 11 0 0 0 189.48 183.99 Z" fill="#4D86B3" stroke="#3F6B91" stroke-width="1.0"/><path d="M 206.86 205.62 A 90 31 0 0 1 170.71 208.96 L 167.47 188.98 A 28 11 0 0 0 178.71 187.8 Z" fill="#4D86B3" stroke="#3F6B91" stroke-width="1.0"/><path d="M 161.29 208.96 A 90 31 0 0 1 125.14 205.62 L 153.29 187.8 A 28 11 0 0 0 164.53 188.98 Z" fill="#4D86B3" stroke="#3F6B91" stroke-width="1.0"/><path d="M 116.98 204 A 90 31 0 0 1 90.52 194.88 L 142.52 183.99 A 28 11 0 0 0 150.75 187.23 Z" fill="#4D86B3" stroke="#3F6B91" stroke-width="1.0"/><path d="M 85.81 192.07 A 90 31 0 0 1 76.12 179.62 L 138.04 178.58 A 28 11 0 0 0 141.05 182.99 Z" fill="#4D86B3" stroke="#3F6B91" stroke-width="1.0"/><path d="M 76.12 176.38 A 90 31 0 0 1 85.81 163.93 L 141.05 173.01 A 28 11 0 0 0 138.04 177.42 Z" fill="#4D86B3" stroke="#3F6B91" stroke-width="1.0"/><path d="M 90.52 161.12 A 90 31 0 0 1 116.98 152 L 150.75 168.77 A 28 11 0 0 0 142.52 172.01 Z" fill="#4D86B3" stroke="#3F6B91" stroke-width="1.0"/><path d="M 125.14 150.38 A 90 31 0 0 1 161.29 147.04 L 164.53 167.02 A 28 11 0 0 0 153.29 168.2 Z" fill="#4D86B3" stroke="#3F6B91" stroke-width="1.0"/><ellipse cx="166" cy="178" rx="28" ry="11" fill="#F8FAFC" stroke="#6B7280" stroke-width="1.4"/><ellipse cx="166" cy="178" rx="17" ry="6.5" fill="#E5EBF1" stroke="#9CA3AF" stroke-width="1.1"/><path d="M 55.12 159.24 A 118 49 0 0 1 276.88 159.24" stroke="#1F2937" stroke-width="1.4" fill="none" marker-start="url(#left-grayhead)" marker-end="url(#left-grayhead)"/><text x="166" y="109" text-anchor="middle" font-family="Arial, Helvetica, sans-serif" font-size="18" font-weight="400" fill="#111827" style="font-style: italic">n</text><text x="174" y="263" text-anchor="middle" font-family="Arial, Helvetica, sans-serif" font-size="20" font-weight="400" fill="#111827" style="font-style: italic">ε</text><text x="232" y="283" text-anchor="start" font-family="Arial, Helvetica, sans-serif" font-size="15" font-weight="400" fill="#374151" font-style="italic"><tspan x="232">dielectric layer</tspan></text><text x="214" y="326" text-anchor="start" font-family="Arial, Helvetica, sans-serif" font-size="15" font-weight="400" fill="#374151" font-style="italic"><tspan x="214">bottom electrode</tspan></text><line x1="312" y1="234" x2="312" y2="272" stroke="#6B7280" stroke-width="1.2" marker-start="url(#left-grayhead)" marker-end="url(#left-grayhead)"/><text x="320" y="258" text-anchor="start" font-family="Arial, Helvetica, sans-serif" font-size="15" font-weight="400" fill="#111827" style="">d/R</text><line x1="312" y1="274" x2="312" y2="311" stroke="#6B7280" stroke-width="1.2" marker-start="url(#left-grayhead)" marker-end="url(#left-grayhead)"/><text x="320" y="298" text-anchor="start" font-family="Arial, Helvetica, sans-serif" font-size="15" font-weight="400" fill="#111827" style="">h/R</text></g><g><rect x="18" y="390" width="102" height="82" rx="10" ry="10" fill="#FFFFFF" stroke="#CBD5E1" stroke-width="1.1"/><circle cx="58" cy="430" r="30" fill="url(#left-hotspot)"/><text x="69" y="409" text-anchor="middle" font-family="Arial, Helvetica, sans-serif" font-size="14" font-weight="400" fill="#374151" style=""></text></g><text x="180" y="447" text-anchor="middle" font-family="Arial, Helvetica, sans-serif" font-size="18" font-weight="400" fill="#111827" style="">COMSOL</text><g><rect x="236" y="390" width="102" height="82" rx="10" ry="10" fill="#FFFFFF" stroke="#CBD5E1" stroke-width="1.1"/><circle cx="287" cy="430" r="31" fill="url(#left-hotspot)"/><line x1="287" y1="430" x2="318" y2="430" stroke="#475569" stroke-width="0.8" stroke-opacity="0.55"/><line x1="287" y1="430" x2="316.13" y2="440.6" stroke="#475569" stroke-width="0.8" stroke-opacity="0.55"/><line x1="287" y1="430" x2="310.75" y2="449.93" stroke="#475569" stroke-width="0.8" stroke-opacity="0.55"/><line x1="287" y1="430" x2="302.5" y2="456.85" stroke="#475569" stroke-width="0.8" stroke-opacity="0.55"/><line x1="287" y1="430" x2="292.38" y2="460.53" stroke="#475569" stroke-width="0.8" stroke-opacity="0.55"/><line x1="287" y1="430" x2="281.62" y2="460.53" stroke="#475569" stroke-width="0.8" stroke-opacity="0.55"/><line x1="287" y1="430" x2="271.5" y2="456.85" stroke="#475569" stroke-width="0.8" stroke-opacity="0.55"/><line x1="287" y1="430" x2="263.25" y2="449.93" stroke="#475569" stroke-width="0.8" stroke-opacity="0.55"/><line x1="287" y1="430" x2="257.87" y2="440.6" stroke="#475569" stroke-width="0.8" stroke-opacity="0.55"/><line x1="287" y1="430" x2="256" y2="430" stroke="#475569" stroke-width="0.8" stroke-opacity="0.55"/><line x1="287" y1="430" x2="257.87" y2="419.4" stroke="#475569" stroke-width="0.8" stroke-opacity="0.55"/><line x1="287" y1="430" x2="263.25" y2="410.07" stroke="#475569" stroke-width="0.8" stroke-opacity="0.55"/><line x1="287" y1="430" x2="271.5" y2="403.15" stroke="#475569" stroke-width="0.8" stroke-opacity="0.55"/><line x1="287" y1="430" x2="281.62" y2="399.47" stroke="#475569" stroke-width="0.8" stroke-opacity="0.55"/><line x1="287" y1="430" x2="292.38" y2="399.47" stroke="#475569" stroke-width="0.8" stroke-opacity="0.55"/><line x1="287" y1="430" x2="302.5" y2="403.15" stroke="#475569" stroke-width="0.8" stroke-opacity="0.55"/><line x1="287" y1="430" x2="310.75" y2="410.07" stroke="#475569" stroke-width="0.8" stroke-opacity="0.55"/><line x1="287" y1="430" x2="316.13" y2="419.4" stroke="#475569" stroke-width="0.8" stroke-opacity="0.55"/><text x="287" y="409" text-anchor="middle" font-family="Arial, Helvetica, sans-serif" font-size="14" font-weight="400" fill="#374151" style="">COMSOL/FEM</text></g></g></svg>
