<?xml version="1.0" encoding="UTF-8"?>
<svg xmlns="http://www.w3.org/2000/svg" xmlns:xlink="http://www.w3.org/1999/xlink" width="580" height="520" viewBox="0 0 580 520"><defs><linearGradient id="mid-card" x1="0%" y1="0%" x2="100%" y2="100%"><stop offset="0%" stop-color="#F8FBFE"/><stop offset="100%" stop-color="#EEF4FA"/></linearGradient><linearGradient id="mid-arrow" x1="0%" y1="0%" x2="100%" y2="0%"><stop offset="0%" stop-color="#DCE5EE" stop-opacity="0.35"/><stop offset="100%" stop-color="#C9D7E3" stop-opacity="0.80"/></linearGradient><marker id="mid-arrowhead" markerWidth="8" markerHeight="8" refX="6" refY="4" orient="auto"><path d="M 0 0 L 8 4 L 0 8 Z" fill="#374151"/></marker><marker id="mid-grayhead" markerWidth="8" markerHeight="8" refX="6" refY="4" orient="auto"><path d="M 0 0 L 8 4 L 0 8 Z" fill="#9CA3AF"/></marker><filter id="mid-blur" x="-20%" y="-20%" width="140%" height="140%"><feGaussianBlur stdDeviation="10"/></filter><radialGradient id="mid-hotspot" cx="50%" cy="50%" r="50%"><stop offset="0%" stop-color="#D7191C"/><stop offset="28%" stop-color="#F46D43"/><stop offset="55%" stop-color="#FDAE61"/><stop offset="78%" stop-color="#ABD9E9"/><stop offset="100%" stop-color="#2C7BB6"/></radialGradient><radialGradient id="mid-disc" cx="50%" cy="42%" r="70%"><stop offset="0%" stop-color="#F8FAFC"/><stop offset="65%" stop-color="#D8E3EE"/><stop offset="100%" stop-color="#B6C8D8"/></radialGradient></defs><g transform="translate(0 0)"><rect x="0" y="0" width="580" height="520" rx="18" ry="18" fill="url(#mid-card)" stroke="none"/><text x="290" y="38" text-anchor="middle" font-family="Arial, Helvetica, sans-serif" font-size="28" font-weight="700" fill="#111827" font-style="normal"><tspan x="290">Physics-consistent</tspan><tspan x="290" dy="35">multi-task surrogate</tspan></text><text x="145" y="265" text-anchor="middle" font-family="Arial, Helvetica, sans-serif" font-size="18" font-weight="400" fill="#374151" font-style="normal"><tspan x="145">Structural-</tspan><tspan x="145" dy="22.5">dielectric inputs</tspan></text><rect x="108" y="178" width="168" height="214" rx="12" ry="12" fill="rgba(255,255,255,0.35)" stroke="#94A3B8" stroke-width="1.6"/><text x="178" y="156" text-anchor="middle" font-family="Arial, Helvetica, sans-serif" font-size="18" font-weight="400" fill="#111827" font-style="normal"><tspan x="178">Multi-task</tspan><tspan x="178" dy="22.5">surrogate</tspan></text><rect x="126" y="190" width="16" height="190" rx="6" fill="#74A7CD" stroke="#3F6B91" stroke-width="1.2"/><circle cx="180" cy="212" r="10" fill="#D1D5DB" stroke="#9CA3AF" stroke-width="1.0"/><line x1="142" y1="212" x2="170" y2="212" stroke="#C7D2DA" stroke-width="1.1"/><circle cx="180" cy="247" r="10" fill="#D1D5DB" stroke="#9CA3AF" stroke-width="1.0"/><line x1="142" y1="247" x2="170" y2="247" stroke="#C7D2DA" stroke-width="1.1"/><circle cx="180" cy="282" r="10" fill="#D1D5DB" stroke="#9CA3AF" stroke-width="1.0"/><line x1="142" y1="282" x2="170" y2="282" stroke="#C7D2DA" stroke-width="1.1"/><circle cx="180" cy="317" r="10" fill="#D1D5DB" stroke="#9CA3AF" stroke-width="1.0"/><line x1="142" y1="317" x2="170" y2="317" stroke="#C7D2DA" stroke-width="1.1"/><circle cx="180" cy="352" r="10" fill="#D1D5DB" stroke="#9CA3AF" stroke-width="1.0"/><line x1="142" y1="352" x2="170" y2="352" stroke="#C7D2DA" stroke-width="1.1"/><circle cx="238" cy="246" r="10" fill="#E56B48" stroke="#334155" stroke-width="1.0"/><circle cx="238" cy="282" r="10" fill="#F08A5B" stroke="#334155" stroke-width="1.0"/><circle cx="238" cy="335" r="10" fill="#4D86B3" stroke="#334155" stroke-width="1.0"/><line x1="190" y1="212" x2="228" y2="246" stroke="#C7D2DA" stroke-width="1.0" stroke-opacity="0.85"/><line x1="190" y1="212" x2="228" y2="282" stroke="#C7D2DA" stroke-width="1.0" stroke-opacity="0.85"/><line x1="190" y1="212" x2="228" y2="335" stroke="#C7D2DA" stroke-width="1.0" stroke-opacity="0.85"/><line x1="190" y1="247" x2="228" y2="246" stroke="#C7D2DA" stroke-width="1.0" stroke-opacity="0.85"/><line x1="190" y1="247" x2="228" y2="282" stroke="#C7D2DA" stroke-width="1.0" stroke-opacity="0.85"/><line x1="190" y1="247" x2="228" y2="335" stroke="#C7D2DA" stroke-width="1.0" stroke-opacity="0.85"/><line x1="190" y1="282" x2="228" y2="246" stroke="#C7D2DA" stroke-width="1.0" stroke-opacity="0.85"/><line x1="190" y1="282" x2="228" y2="282" stroke="#C7D2DA" stroke-width="1.0" stroke-opacity="0.85"/><line x1="190" y1="282" x2="228" y2="335" stroke="#C7D2DA" stroke-width="1.0" stroke-opacity="0.85"/><line x1="190" y1="317" x2="228" y2="246" stroke="#C7D2DA" stroke-width="1.0" stroke-opacity="0.85"/><line x1="190" y1="317" x2="228" y2="282" stroke="#C7D2DA" stroke-width="1.0" stroke-opacity="0.85"/><line x1="190" y1="317" x2="228" y2="335" stroke="#C7D2DA" stroke-width="1.0" stroke-opacity="0.85"/><line x1="190" y1="352" x2="228" y2="246" stroke="#C7D2DA" stroke-width="1.0" stroke-opacity="0.85"/><line x1="190" y1="352" x2="228" y2="282" stroke="#C7D2DA" stroke-width="1.0" stroke-opacity="0.85"/><line x1="190" y1="352" x2="228" y2="335" stroke="#C7D2DA" stroke-width="1.0" stroke-opacity="0.85"/><path d="M 248 246 C 312 232, 366 225, 456 262" fill="none" stroke="#E56B48" stroke-width="5.5" stroke-linecap="round" marker-end="url(#mid-arrowhead)" stroke-opacity="0.95"/><path d="M 248 335 C 308 346, 366 338, 452 318" fill="none" stroke="#4D86B3" stroke-width="5.5" stroke-linecap="round" marker-end="url(#mid-arrowhead)" stroke-opacity="0.95"/><text x="284" y="224" text-anchor="start" font-family="Arial, Helvetica, sans-serif" font-size="18" font-weight="400" fill="#D95F3A" style="">Qsc</text><text x="286" y="384" text-anchor="start" font-family="Arial, Helvetica, sans-serif" font-size="18" font-weight="400" fill="#3F7AA6" style="font-style: italic">invC</text><text x="328" y="310" font-family="Arial, Helvetica, sans-serif" font-size="25" fill="#111827" font-style="italic">FOMS<tspan baseline-shift="sub" font-size="16">direct</tspan> ≈ FOMS<tspan baseline-shift="sub" font-size="16">phys</tspan></text><text x="455" y="352" text-anchor="start" font-family="Arial, Helvetica, sans-serif" font-size="16" font-weight="400" fill="#374151" font-style="italic"><tspan x="455">Physics</tspan><tspan x="455" dy="20">consistency</tspan></text></g></svg>
