<?xml version="1.0" encoding="utf-8" standalone="no"?>
<!DOCTYPE svg PUBLIC "-//W3C//DTD SVG 1.1//EN"
  "http://www.w3.org/Graphics/SVG/1.1/DTD/svg11.dtd">
<svg xmlns:xlink="http://www.w3.org/1999/xlink" width="648pt" height="432pt" viewBox="0 0 648 432" xmlns="http://www.w3.org/2000/svg" version="1.1">
 <metadata>
  <rdf:RDF xmlns:dc="http://purl.org/dc/elements/1.1/" xmlns:cc="http://creativecommons.org/ns#" xmlns:rdf="http://www.w3.org/1999/02/22-rdf-syntax-ns#">
   <cc:Work>
    <dc:type rdf:resource="http://purl.org/dc/dcmitype/StillImage"/>
    <dc:date>2026-04-09T13:11:39.051064</dc:date>
    <dc:format>image/svg+xml</dc:format>
    <dc:creator>
     <cc:Agent>
      <dc:title>Matplotlib v3.10.8, https://matplotlib.org/</dc:title>
     </cc:Agent>
    </dc:creator>
   </cc:Work>
  </rdf:RDF>
 </metadata>
 <defs>
  <style type="text/css">*{stroke-linejoin: round; stroke-linecap: butt}</style>
 </defs>
 <g id="figure_1">
  <g id="patch_1">
   <path d="M 0 432 
L 648 432 
L 648 0 
L 0 0 
L 0 432 
z
" style="fill: none; opacity: 0"/>
  </g>
  <g id="axes_1">
   <g id="patch_2">
    <path d="M 32.4 410.4 
L 615.6 410.4 
L 615.6 21.6 
L 32.4 21.6 
L 32.4 410.4 
z
" style="fill: none"/>
   </g>
   <g id="PathCollection_1">
    <defs>
     <path id="m9852667900" d="M 0 3.162278 
C 0.838646 3.162278 1.643056 2.82908 2.236068 2.236068 
C 2.82908 1.643056 3.162278 0.838646 3.162278 0 
C 3.162278 -0.838646 2.82908 -1.643056 2.236068 -2.236068 
C 1.643056 -2.82908 0.838646 -3.162278 0 -3.162278 
C -0.838646 -3.162278 -1.643056 -2.82908 -2.236068 -2.236068 
C -2.82908 -1.643056 -3.162278 -0.838646 -3.162278 0 
C -3.162278 0.838646 -2.82908 1.643056 -2.236068 2.236068 
C -1.643056 2.82908 -0.838646 3.162278 0 3.162278 
z
"/>
    </defs>
    <g clip-path="url(#p51b28e495d)">
     <use xlink:href="#m9852667900" x="290.411697" y="246.127589" style="fill: #d1d5db; fill-opacity: 0.72"/>
     <use xlink:href="#m9852667900" x="542.221814" y="186.016409" style="fill: #d1d5db; fill-opacity: 0.72"/>
     <use xlink:href="#m9852667900" x="217.428334" y="188.886502" style="fill: #d1d5db; fill-opacity: 0.72"/>
     <use xlink:href="#m9852667900" x="110.913212" y="254.438917" style="fill: #d1d5db; fill-opacity: 0.72"/>
     <use xlink:href="#m9852667900" x="235.697224" y="341.758408" style="fill: #d1d5db; fill-opacity: 0.72"/>
     <use xlink:href="#m9852667900" x="438.763986" y="62.359419" style="fill: #d1d5db; fill-opacity: 0.72"/>
     <use xlink:href="#m9852667900" x="470.038005" y="75.748512" style="fill: #d1d5db; fill-opacity: 0.72"/>
     <use xlink:href="#m9852667900" x="349.353323" y="291.550924" style="fill: #d1d5db; fill-opacity: 0.72"/>
     <use xlink:href="#m9852667900" x="236.256128" y="194.603317" style="fill: #d1d5db; fill-opacity: 0.72"/>
     <use xlink:href="#m9852667900" x="537.479618" y="296.564626" style="fill: #d1d5db; fill-opacity: 0.72"/>
     <use xlink:href="#m9852667900" x="543.320816" y="220.200183" style="fill: #d1d5db; fill-opacity: 0.72"/>
     <use xlink:href="#m9852667900" x="298.452924" y="195.298568" style="fill: #d1d5db; fill-opacity: 0.72"/>
     <use xlink:href="#m9852667900" x="285.08837" y="353.420864" style="fill: #d1d5db; fill-opacity: 0.72"/>
     <use xlink:href="#m9852667900" x="386.488109" y="165.272988" style="fill: #d1d5db; fill-opacity: 0.72"/>
     <use xlink:href="#m9852667900" x="436.486349" y="254.766343" style="fill: #d1d5db; fill-opacity: 0.72"/>
    </g>
   </g>
   <g id="matplotlib.axis_1"/>
   <g id="matplotlib.axis_2"/>
   <g id="line2d_1">
    <path d="M 214.65 410.4 
L 214.65 21.6 
" clip-path="url(#p51b28e495d)" style="fill: none; stroke-dasharray: 8.4,5.6; stroke-dashoffset: 0; stroke: #6b7280; stroke-opacity: 0.9; stroke-width: 1.4"/>
   </g>
   <g id="line2d_2">
    <path d="M 32.4 139.930435 
L 615.6 139.930435 
" clip-path="url(#p51b28e495d)" style="fill: none; stroke-dasharray: 8.4,5.6; stroke-dashoffset: 0; stroke: #6b7280; stroke-opacity: 0.9; stroke-width: 1.4"/>
   </g>
   <g id="PathCollection_2">
    <defs>
     <path id="ma27f3455d3" d="M 0 3.807887 
C 1.009863 3.807887 1.978501 3.406664 2.692582 2.692582 
C 3.406664 1.978501 3.807887 1.009863 3.807887 0 
C 3.807887 -1.009863 3.406664 -1.978501 2.692582 -2.692582 
C 1.978501 -3.406664 1.009863 -3.807887 0 -3.807887 
C -1.009863 -3.807887 -1.978501 -3.406664 -2.692582 -2.692582 
C -3.406664 -1.978501 -3.807887 -1.009863 -3.807887 0 
C -3.807887 1.009863 -3.406664 1.978501 -2.692582 2.692582 
C -1.978501 3.406664 -1.009863 3.807887 0 3.807887 
z
" style="stroke: #2e7d52; stroke-opacity: 0.98; stroke-width: 0.6"/>
    </defs>
    <g clip-path="url(#p51b28e495d)">
     <use xlink:href="#ma27f3455d3" x="129.6" y="72.313043" style="fill: #2e7d52; fill-opacity: 0.98; stroke: #2e7d52; stroke-opacity: 0.98; stroke-width: 0.6"/>
     <use xlink:href="#ma27f3455d3" x="153.9" y="101.895652" style="fill: #2e7d52; fill-opacity: 0.98; stroke: #2e7d52; stroke-opacity: 0.98; stroke-width: 0.6"/>
     <use xlink:href="#ma27f3455d3" x="172.125" y="84.991304" style="fill: #2e7d52; fill-opacity: 0.98; stroke: #2e7d52; stroke-opacity: 0.98; stroke-width: 0.6"/>
     <use xlink:href="#ma27f3455d3" x="190.35" y="59.634783" style="fill: #2e7d52; fill-opacity: 0.98; stroke: #2e7d52; stroke-opacity: 0.98; stroke-width: 0.6"/>
     <use xlink:href="#ma27f3455d3" x="166.05" y="46.956522" style="fill: #2e7d52; fill-opacity: 0.98; stroke: #2e7d52; stroke-opacity: 0.98; stroke-width: 0.6"/>
    </g>
   </g>
  </g>
 </g>
 <defs>
  <clipPath id="p51b28e495d">
   <rect x="32.4" y="21.6" width="583.2" height="388.8"/>
  </clipPath>
 </defs>
</svg>
