<?xml version="1.0" encoding="utf-8" standalone="no"?>
<!DOCTYPE svg PUBLIC "-//W3C//DTD SVG 1.1//EN"
  "http://www.w3.org/Graphics/SVG/1.1/DTD/svg11.dtd">
<svg xmlns:xlink="http://www.w3.org/1999/xlink" width="96pt" height="72pt" viewBox="0 0 96 72" xmlns="http://www.w3.org/2000/svg" version="1.1">
 <metadata>
  <rdf:RDF xmlns:dc="http://purl.org/dc/elements/1.1/" xmlns:cc="http://creativecommons.org/ns#" xmlns:rdf="http://www.w3.org/1999/02/22-rdf-syntax-ns#">
   <cc:Work>
    <dc:type rdf:resource="http://purl.org/dc/dcmitype/StillImage"/>
    <dc:date>2026-04-10T16:57:30.755390</dc:date>
    <dc:format>image/svg+xml</dc:format>
    <dc:creator>
     <cc:Agent>
      <dc:title>Matplotlib v3.8.0, https://matplotlib.org/</dc:title>
     </cc:Agent>
    </dc:creator>
   </cc:Work>
  </rdf:RDF>
 </metadata>
 <defs>
  <style type="text/css">*{stroke-linejoin: round; stroke-linecap: butt}</style>
 </defs>
 <g id="figure_1">
  <g id="patch_1">
   <path d="M 0 72 
L 96 72 
L 96 0 
L 0 0 
L 0 72 
z
" style="fill: none"/>
  </g>
  <g id="axes_1">
   <g id="patch_2">
    <path d="M 11.52 61.92 
L 88.32 61.92 
L 88.32 8.64 
L 11.52 8.64 
L 11.52 61.92 
z
" style="fill: none"/>
   </g>
   <g id="line2d_1">
    <path d="M 15.010909 59.498182 
L 84.829091 11.061818 
" clip-path="url(#p6c0f3b47d1)" style="fill: none; stroke: #94a3b8; stroke-width: 0.9; stroke-linecap: square"/>
   </g>
   <g id="matplotlib.axis_1">
    <g id="xtick_1">
     <g id="line2d_2">
      <defs>
       <path id="m32ace449bd" d="M 0 0 
L 0 2.1 
" style="stroke: #64748b; stroke-width: 0.8"/>
      </defs>
      <g>
       <use xlink:href="#m32ace449bd" x="15.010909" y="61.92" style="fill: #64748b; stroke: #64748b; stroke-width: 0.8"/>
      </g>
     </g>
    </g>
    <g id="xtick_2">
     <g id="line2d_3">
      <g>
       <use xlink:href="#m32ace449bd" x="84.829091" y="61.92" style="fill: #64748b; stroke: #64748b; stroke-width: 0.8"/>
      </g>
     </g>
    </g>
   </g>
   <g id="matplotlib.axis_2">
    <g id="ytick_1">
     <g id="line2d_4">
      <defs>
       <path id="m6afd7ed528" d="M 0 0 
L -2.1 0 
" style="stroke: #64748b; stroke-width: 0.8"/>
      </defs>
      <g>
       <use xlink:href="#m6afd7ed528" x="11.52" y="59.498182" style="fill: #64748b; stroke: #64748b; stroke-width: 0.8"/>
      </g>
     </g>
    </g>
    <g id="ytick_2">
     <g id="line2d_5">
      <g>
       <use xlink:href="#m6afd7ed528" x="11.52" y="11.061818" style="fill: #64748b; stroke: #64748b; stroke-width: 0.8"/>
      </g>
     </g>
    </g>
   </g>
   <g id="PathCollection_1">
    <defs>
     <path id="m98d1e6ad61" d="M 0 1.414214 
C 0.375054 1.414214 0.734797 1.265203 1 1 
C 1.265203 0.734797 1.414214 0.375054 1.414214 0 
C 1.414214 -0.375054 1.265203 -0.734797 1 -1 
C 0.734797 -1.265203 0.375054 -1.414214 0 -1.414214 
C -0.375054 -1.414214 -0.734797 -1.265203 -1 -1 
C -1.265203 -0.734797 -1.414214 -0.375054 -1.414214 0 
C -1.414214 0.375054 -1.265203 0.734797 -1 1 
C -0.734797 1.265203 -0.375054 1.414214 0 1.414214 
z
"/>
    </defs>
    <g clip-path="url(#p6c0f3b47d1)">
     <use xlink:href="#m98d1e6ad61" x="83.25141" y="14.583369" style="fill: #e69f00; fill-opacity: 0.9"/>
     <use xlink:href="#m98d1e6ad61" x="83.253652" y="17.299734" style="fill: #e69f00; fill-opacity: 0.9"/>
     <use xlink:href="#m98d1e6ad61" x="80.047185" y="17.956744" style="fill: #e69f00; fill-opacity: 0.9"/>
     <use xlink:href="#m98d1e6ad61" x="79.854305" y="17.195125" style="fill: #e69f00; fill-opacity: 0.9"/>
     <use xlink:href="#m98d1e6ad61" x="75.117213" y="17.447226" style="fill: #e69f00; fill-opacity: 0.9"/>
     <use xlink:href="#m98d1e6ad61" x="74.850218" y="18.226881" style="fill: #e69f00; fill-opacity: 0.9"/>
     <use xlink:href="#m98d1e6ad61" x="70.06629" y="19.035341" style="fill: #e69f00; fill-opacity: 0.9"/>
     <use xlink:href="#m98d1e6ad61" x="66.397453" y="19.906079" style="fill: #e69f00; fill-opacity: 0.9"/>
     <use xlink:href="#m98d1e6ad61" x="59.159051" y="22.29857" style="fill: #e69f00; fill-opacity: 0.9"/>
     <use xlink:href="#m98d1e6ad61" x="55.67687" y="23.64476" style="fill: #e69f00; fill-opacity: 0.9"/>
     <use xlink:href="#m98d1e6ad61" x="48.907876" y="27.952163" style="fill: #e69f00; fill-opacity: 0.9"/>
     <use xlink:href="#m98d1e6ad61" x="30.682346" y="41.04817" style="fill: #e69f00; fill-opacity: 0.9"/>
     <use xlink:href="#m98d1e6ad61" x="25.184409" y="44.923079" style="fill: #e69f00; fill-opacity: 0.9"/>
     <use xlink:href="#m98d1e6ad61" x="15.010909" y="51.537488" style="fill: #e69f00; fill-opacity: 0.9"/>
    </g>
   </g>
   <g id="PathCollection_2">
    <defs>
     <path id="mc1b3f10c1b" d="M 0 1.414214 
C 0.375054 1.414214 0.734797 1.265203 1 1 
C 1.265203 0.734797 1.414214 0.375054 1.414214 0 
C 1.414214 -0.375054 1.265203 -0.734797 1 -1 
C 0.734797 -1.265203 0.375054 -1.414214 0 -1.414214 
C -0.375054 -1.414214 -0.734797 -1.265203 -1 -1 
C -1.265203 -0.734797 -1.414214 -0.375054 -1.414214 0 
C -1.414214 0.375054 -1.265203 0.734797 -1 1 
C -0.734797 1.265203 -0.375054 1.414214 0 1.414214 
z
"/>
    </defs>
    <g clip-path="url(#p6c0f3b47d1)">
     <use xlink:href="#mc1b3f10c1b" x="72.200781" y="21.399034" style="fill: #56b4e9; fill-opacity: 0.9"/>
     <use xlink:href="#mc1b3f10c1b" x="73.147735" y="20.155257" style="fill: #56b4e9; fill-opacity: 0.9"/>
     <use xlink:href="#mc1b3f10c1b" x="73.159882" y="20.185495" style="fill: #56b4e9; fill-opacity: 0.9"/>
     <use xlink:href="#mc1b3f10c1b" x="72.989211" y="20.221691" style="fill: #56b4e9; fill-opacity: 0.9"/>
     <use xlink:href="#mc1b3f10c1b" x="72.318346" y="20.536859" style="fill: #56b4e9; fill-opacity: 0.9"/>
     <use xlink:href="#mc1b3f10c1b" x="71.834858" y="20.784043" style="fill: #56b4e9; fill-opacity: 0.9"/>
     <use xlink:href="#mc1b3f10c1b" x="70.699953" y="21.338471" style="fill: #56b4e9; fill-opacity: 0.9"/>
     <use xlink:href="#mc1b3f10c1b" x="69.333333" y="22.026438" style="fill: #56b4e9; fill-opacity: 0.9"/>
     <use xlink:href="#mc1b3f10c1b" x="66.303335" y="23.648777" style="fill: #56b4e9; fill-opacity: 0.9"/>
     <use xlink:href="#mc1b3f10c1b" x="64.653442" y="24.668415" style="fill: #56b4e9; fill-opacity: 0.9"/>
     <use xlink:href="#mc1b3f10c1b" x="61.183627" y="26.53115" style="fill: #56b4e9; fill-opacity: 0.9"/>
     <use xlink:href="#mc1b3f10c1b" x="50.675938" y="32.246055" style="fill: #56b4e9; fill-opacity: 0.9"/>
     <use xlink:href="#mc1b3f10c1b" x="47.095604" y="34.410056" style="fill: #56b4e9; fill-opacity: 0.9"/>
     <use xlink:href="#mc1b3f10c1b" x="40.851058" y="38.153195" style="fill: #56b4e9; fill-opacity: 0.9"/>
    </g>
   </g>
   <g id="PathCollection_3">
    <defs>
     <path id="m5b315f529c" d="M 0 1.414214 
C 0.375054 1.414214 0.734797 1.265203 1 1 
C 1.265203 0.734797 1.414214 0.375054 1.414214 0 
C 1.414214 -0.375054 1.265203 -0.734797 1 -1 
C 0.734797 -1.265203 0.375054 -1.414214 0 -1.414214 
C -0.375054 -1.414214 -0.734797 -1.265203 -1 -1 
C -1.265203 -0.734797 -1.414214 -0.375054 -1.414214 0 
C -1.414214 0.375054 -1.265203 0.734797 -1 1 
C -0.734797 1.265203 -0.375054 1.414214 0 1.414214 
z
"/>
    </defs>
    <g clip-path="url(#p6c0f3b47d1)">
     <use xlink:href="#m5b315f529c" x="81.328515" y="14.405912" style="fill: #009e73; fill-opacity: 0.9"/>
     <use xlink:href="#m5b315f529c" x="62.162152" y="29.357145" style="fill: #009e73; fill-opacity: 0.9"/>
     <use xlink:href="#m5b315f529c" x="43.872847" y="41.467626" style="fill: #009e73; fill-opacity: 0.9"/>
     <use xlink:href="#m5b315f529c" x="83.76793" y="15.554761" style="fill: #009e73; fill-opacity: 0.9"/>
     <use xlink:href="#m5b315f529c" x="63.081097" y="28.887283" style="fill: #009e73; fill-opacity: 0.9"/>
     <use xlink:href="#m5b315f529c" x="44.747734" y="39.665041" style="fill: #009e73; fill-opacity: 0.9"/>
     <use xlink:href="#m5b315f529c" x="83.781818" y="14.750297" style="fill: #009e73; fill-opacity: 0.9"/>
     <use xlink:href="#m5b315f529c" x="64.697997" y="27.176111" style="fill: #009e73; fill-opacity: 0.9"/>
     <use xlink:href="#m5b315f529c" x="45.56325" y="38.321404" style="fill: #009e73; fill-opacity: 0.9"/>
     <use xlink:href="#m5b315f529c" x="84.614233" y="15.691052" style="fill: #009e73; fill-opacity: 0.9"/>
     <use xlink:href="#m5b315f529c" x="66.403879" y="23.983633" style="fill: #009e73; fill-opacity: 0.9"/>
     <use xlink:href="#m5b315f529c" x="42.751784" y="39.014986" style="fill: #009e73; fill-opacity: 0.9"/>
     <use xlink:href="#m5b315f529c" x="79.323463" y="16.934501" style="fill: #009e73; fill-opacity: 0.9"/>
     <use xlink:href="#m5b315f529c" x="66.513042" y="22.482257" style="fill: #009e73; fill-opacity: 0.9"/>
     <use xlink:href="#m5b315f529c" x="37.918182" y="43.212204" style="fill: #009e73; fill-opacity: 0.9"/>
    </g>
   </g>
   <g id="patch_3">
    <path d="M 11.52 61.92 
L 11.52 8.64 
" style="fill: none; stroke: #64748b; stroke-width: 0.8; stroke-linejoin: miter; stroke-linecap: square"/>
   </g>
   <g id="patch_4">
    <path d="M 88.32 61.92 
L 88.32 8.64 
" style="fill: none; stroke: #d1d5db; stroke-width: 0.7; stroke-linejoin: miter; stroke-linecap: square"/>
   </g>
   <g id="patch_5">
    <path d="M 11.52 61.92 
L 88.32 61.92 
" style="fill: none; stroke: #64748b; stroke-width: 0.8; stroke-linejoin: miter; stroke-linecap: square"/>
   </g>
   <g id="patch_6">
    <path d="M 11.52 8.64 
L 88.32 8.64 
" style="fill: none; stroke: #d1d5db; stroke-width: 0.7; stroke-linejoin: miter; stroke-linecap: square"/>
   </g>
   <g id="text_1">
    <text style="fill: #111827; font: 700 6.2px 'Arial', 'Helvetica', 'DejaVu Sans', sans-serif; text-anchor: start" x="13.824" y="15.284606" transform="rotate(-0 13.824 15.284606)">OOD, R²log=0.91</text>
   </g>
  </g>
 </g>
 <defs>
  <clipPath id="p6c0f3b47d1">
   <rect x="11.52" y="8.64" width="76.8" height="53.28"/>
  </clipPath>
 </defs>
</svg>
