<?xml version="1.0" encoding="utf-8" standalone="no"?>
<!DOCTYPE svg PUBLIC "-//W3C//DTD SVG 1.1//EN"
  "http://www.w3.org/Graphics/SVG/1.1/DTD/svg11.dtd">
<svg xmlns:xlink="http://www.w3.org/1999/xlink" width="96pt" height="72pt" viewBox="0 0 96 72" xmlns="http://www.w3.org/2000/svg" version="1.1">
 <metadata>
  <rdf:RDF xmlns:dc="http://purl.org/dc/elements/1.1/" xmlns:cc="http://creativecommons.org/ns#" xmlns:rdf="http://www.w3.org/1999/02/22-rdf-syntax-ns#">
   <cc:Work>
    <dc:type rdf:resource="http://purl.org/dc/dcmitype/StillImage"/>
    <dc:date>2026-04-10T16:57:29.934514</dc:date>
    <dc:format>image/svg+xml</dc:format>
    <dc:creator>
     <cc:Agent>
      <dc:title>Matplotlib v3.8.0, https://matplotlib.org/</dc:title>
     </cc:Agent>
    </dc:creator>
   </cc:Work>
  </rdf:RDF>
 </metadata>
 <defs>
  <style type="text/css">*{stroke-linejoin: round; stroke-linecap: butt}</style>
 </defs>
 <g id="figure_1">
  <g id="patch_1">
   <path d="M 0 72 
L 96 72 
L 96 0 
L 0 0 
L 0 72 
z
" style="fill: none"/>
  </g>
  <g id="axes_1">
   <g id="patch_2">
    <path d="M 11.52 57.6 
L 80.64 57.6 
L 80.64 10.08 
L 11.52 10.08 
L 11.52 57.6 
z
" style="fill: none"/>
   </g>
   <g id="QuadMesh_1">
    <path d="M 11.52 57.6 
L 23.04 57.6 
L 23.04 52.32 
L 11.52 52.32 
L 11.52 57.6 
" clip-path="url(#pd3aff8a48a)" style="fill: #f4e61e; stroke: #ffffff; stroke-opacity: 0.2; stroke-width: 0.35"/>
    <path d="M 23.04 57.6 
L 34.56 57.6 
L 34.56 52.32 
L 23.04 52.32 
L 23.04 57.6 
" clip-path="url(#pd3aff8a48a)" style="fill: #ece51b; stroke: #ffffff; stroke-opacity: 0.2; stroke-width: 0.35"/>
    <path d="M 34.56 57.6 
L 46.08 57.6 
L 46.08 52.32 
L 34.56 52.32 
L 34.56 57.6 
" clip-path="url(#pd3aff8a48a)" style="fill: #dfe318; stroke: #ffffff; stroke-opacity: 0.2; stroke-width: 0.35"/>
    <path d="M 46.08 57.6 
L 57.6 57.6 
L 57.6 52.32 
L 46.08 52.32 
L 46.08 57.6 
" clip-path="url(#pd3aff8a48a)" style="fill: #cde11d; stroke: #ffffff; stroke-opacity: 0.2; stroke-width: 0.35"/>
    <path d="M 57.6 57.6 
L 69.12 57.6 
L 69.12 52.32 
L 57.6 52.32 
L 57.6 57.6 
" clip-path="url(#pd3aff8a48a)" style="fill: #b2dd2d; stroke: #ffffff; stroke-opacity: 0.2; stroke-width: 0.35"/>
    <path d="M 69.12 57.6 
L 80.64 57.6 
L 80.64 52.32 
L 69.12 52.32 
L 69.12 57.6 
" clip-path="url(#pd3aff8a48a)" style="fill: #8bd646; stroke: #ffffff; stroke-opacity: 0.2; stroke-width: 0.35"/>
    <path d="M 11.52 52.32 
L 23.04 52.32 
L 23.04 47.04 
L 11.52 47.04 
L 11.52 52.32 
" clip-path="url(#pd3aff8a48a)" style="fill: #fbe723; stroke: #ffffff; stroke-opacity: 0.2; stroke-width: 0.35"/>
    <path d="M 23.04 52.32 
L 34.56 52.32 
L 34.56 47.04 
L 23.04 47.04 
L 23.04 52.32 
" clip-path="url(#pd3aff8a48a)" style="fill: #f4e61e; stroke: #ffffff; stroke-opacity: 0.2; stroke-width: 0.35"/>
    <path d="M 34.56 52.32 
L 46.08 52.32 
L 46.08 47.04 
L 34.56 47.04 
L 34.56 52.32 
" clip-path="url(#pd3aff8a48a)" style="fill: #e7e419; stroke: #ffffff; stroke-opacity: 0.2; stroke-width: 0.35"/>
    <path d="M 46.08 52.32 
L 57.6 52.32 
L 57.6 47.04 
L 46.08 47.04 
L 46.08 52.32 
" clip-path="url(#pd3aff8a48a)" style="fill: #d5e21a; stroke: #ffffff; stroke-opacity: 0.2; stroke-width: 0.35"/>
    <path d="M 57.6 52.32 
L 69.12 52.32 
L 69.12 47.04 
L 57.6 47.04 
L 57.6 52.32 
" clip-path="url(#pd3aff8a48a)" style="fill: #b5de2b; stroke: #ffffff; stroke-opacity: 0.2; stroke-width: 0.35"/>
    <path d="M 69.12 52.32 
L 80.64 52.32 
L 80.64 47.04 
L 69.12 47.04 
L 69.12 52.32 
" clip-path="url(#pd3aff8a48a)" style="fill: #8bd646; stroke: #ffffff; stroke-opacity: 0.2; stroke-width: 0.35"/>
    <path d="M 11.52 47.04 
L 23.04 47.04 
L 23.04 41.76 
L 11.52 41.76 
L 11.52 47.04 
" clip-path="url(#pd3aff8a48a)" style="fill: #fde725; stroke: #ffffff; stroke-opacity: 0.2; stroke-width: 0.35"/>
    <path d="M 23.04 47.04 
L 34.56 47.04 
L 34.56 41.76 
L 23.04 41.76 
L 23.04 47.04 
" clip-path="url(#pd3aff8a48a)" style="fill: #f8e621; stroke: #ffffff; stroke-opacity: 0.2; stroke-width: 0.35"/>
    <path d="M 34.56 47.04 
L 46.08 47.04 
L 46.08 41.76 
L 34.56 41.76 
L 34.56 47.04 
" clip-path="url(#pd3aff8a48a)" style="fill: #eae51a; stroke: #ffffff; stroke-opacity: 0.2; stroke-width: 0.35"/>
    <path d="M 46.08 47.04 
L 57.6 47.04 
L 57.6 41.76 
L 46.08 41.76 
L 46.08 47.04 
" clip-path="url(#pd3aff8a48a)" style="fill: #d2e21b; stroke: #ffffff; stroke-opacity: 0.2; stroke-width: 0.35"/>
    <path d="M 57.6 47.04 
L 69.12 47.04 
L 69.12 41.76 
L 57.6 41.76 
L 57.6 47.04 
" clip-path="url(#pd3aff8a48a)" style="fill: #b0dd2f; stroke: #ffffff; stroke-opacity: 0.2; stroke-width: 0.35"/>
    <path d="M 69.12 47.04 
L 80.64 47.04 
L 80.64 41.76 
L 69.12 41.76 
L 69.12 47.04 
" clip-path="url(#pd3aff8a48a)" style="fill: #7fd34e; stroke: #ffffff; stroke-opacity: 0.2; stroke-width: 0.35"/>
    <path d="M 11.52 41.76 
L 23.04 41.76 
L 23.04 36.48 
L 11.52 36.48 
L 11.52 41.76 
" clip-path="url(#pd3aff8a48a)" style="fill: #fde725; stroke: #ffffff; stroke-opacity: 0.2; stroke-width: 0.35"/>
    <path d="M 23.04 41.76 
L 34.56 41.76 
L 34.56 36.48 
L 23.04 36.48 
L 23.04 41.76 
" clip-path="url(#pd3aff8a48a)" style="fill: #f4e61e; stroke: #ffffff; stroke-opacity: 0.2; stroke-width: 0.35"/>
    <path d="M 34.56 41.76 
L 46.08 41.76 
L 46.08 36.48 
L 34.56 36.48 
L 34.56 41.76 
" clip-path="url(#pd3aff8a48a)" style="fill: #e5e419; stroke: #ffffff; stroke-opacity: 0.2; stroke-width: 0.35"/>
    <path d="M 46.08 41.76 
L 57.6 41.76 
L 57.6 36.48 
L 46.08 36.48 
L 46.08 41.76 
" clip-path="url(#pd3aff8a48a)" style="fill: #cae11f; stroke: #ffffff; stroke-opacity: 0.2; stroke-width: 0.35"/>
    <path d="M 57.6 41.76 
L 69.12 41.76 
L 69.12 36.48 
L 57.6 36.48 
L 57.6 41.76 
" clip-path="url(#pd3aff8a48a)" style="fill: #9dd93b; stroke: #ffffff; stroke-opacity: 0.2; stroke-width: 0.35"/>
    <path d="M 69.12 41.76 
L 80.64 41.76 
L 80.64 36.48 
L 69.12 36.48 
L 69.12 41.76 
" clip-path="url(#pd3aff8a48a)" style="fill: #60ca60; stroke: #ffffff; stroke-opacity: 0.2; stroke-width: 0.35"/>
    <path d="M 11.52 36.48 
L 23.04 36.48 
L 23.04 31.2 
L 11.52 31.2 
L 11.52 36.48 
" clip-path="url(#pd3aff8a48a)" style="fill: #f6e620; stroke: #ffffff; stroke-opacity: 0.2; stroke-width: 0.35"/>
    <path d="M 23.04 36.48 
L 34.56 36.48 
L 34.56 31.2 
L 23.04 31.2 
L 23.04 36.48 
" clip-path="url(#pd3aff8a48a)" style="fill: #ece51b; stroke: #ffffff; stroke-opacity: 0.2; stroke-width: 0.35"/>
    <path d="M 34.56 36.48 
L 46.08 36.48 
L 46.08 31.2 
L 34.56 31.2 
L 34.56 36.48 
" clip-path="url(#pd3aff8a48a)" style="fill: #d8e219; stroke: #ffffff; stroke-opacity: 0.2; stroke-width: 0.35"/>
    <path d="M 46.08 36.48 
L 57.6 36.48 
L 57.6 31.2 
L 46.08 31.2 
L 46.08 36.48 
" clip-path="url(#pd3aff8a48a)" style="fill: #b2dd2d; stroke: #ffffff; stroke-opacity: 0.2; stroke-width: 0.35"/>
    <path d="M 57.6 36.48 
L 69.12 36.48 
L 69.12 31.2 
L 57.6 31.2 
L 57.6 36.48 
" clip-path="url(#pd3aff8a48a)" style="fill: #75d054; stroke: #ffffff; stroke-opacity: 0.2; stroke-width: 0.35"/>
    <path d="M 69.12 36.48 
L 80.64 36.48 
L 80.64 31.2 
L 69.12 31.2 
L 69.12 36.48 
" clip-path="url(#pd3aff8a48a)" style="fill: #2eb37c; stroke: #ffffff; stroke-opacity: 0.2; stroke-width: 0.35"/>
    <path d="M 11.52 31.2 
L 23.04 31.2 
L 23.04 25.92 
L 11.52 25.92 
L 11.52 31.2 
" clip-path="url(#pd3aff8a48a)" style="fill: #e5e419; stroke: #ffffff; stroke-opacity: 0.2; stroke-width: 0.35"/>
    <path d="M 23.04 31.2 
L 34.56 31.2 
L 34.56 25.92 
L 23.04 25.92 
L 23.04 31.2 
" clip-path="url(#pd3aff8a48a)" style="fill: #d8e219; stroke: #ffffff; stroke-opacity: 0.2; stroke-width: 0.35"/>
    <path d="M 34.56 31.2 
L 46.08 31.2 
L 46.08 25.92 
L 34.56 25.92 
L 34.56 31.2 
" clip-path="url(#pd3aff8a48a)" style="fill: #b8de29; stroke: #ffffff; stroke-opacity: 0.2; stroke-width: 0.35"/>
    <path d="M 46.08 31.2 
L 57.6 31.2 
L 57.6 25.92 
L 46.08 25.92 
L 46.08 31.2 
" clip-path="url(#pd3aff8a48a)" style="fill: #7cd250; stroke: #ffffff; stroke-opacity: 0.2; stroke-width: 0.35"/>
    <path d="M 57.6 31.2 
L 69.12 31.2 
L 69.12 25.92 
L 57.6 25.92 
L 57.6 31.2 
" clip-path="url(#pd3aff8a48a)" style="fill: #42be71; stroke: #ffffff; stroke-opacity: 0.2; stroke-width: 0.35"/>
    <path d="M 69.12 31.2 
L 80.64 31.2 
L 80.64 25.92 
L 69.12 25.92 
L 69.12 31.2 
" clip-path="url(#pd3aff8a48a)" style="fill: #24878e; stroke: #ffffff; stroke-opacity: 0.2; stroke-width: 0.35"/>
    <path d="M 11.52 25.92 
L 23.04 25.92 
L 23.04 20.64 
L 11.52 20.64 
L 11.52 25.92 
" clip-path="url(#pd3aff8a48a)" style="fill: #cde11d; stroke: #ffffff; stroke-opacity: 0.2; stroke-width: 0.35"/>
    <path d="M 23.04 25.92 
L 34.56 25.92 
L 34.56 20.64 
L 23.04 20.64 
L 23.04 25.92 
" clip-path="url(#pd3aff8a48a)" style="fill: #b2dd2d; stroke: #ffffff; stroke-opacity: 0.2; stroke-width: 0.35"/>
    <path d="M 34.56 25.92 
L 46.08 25.92 
L 46.08 20.64 
L 34.56 20.64 
L 34.56 25.92 
" clip-path="url(#pd3aff8a48a)" style="fill: #7fd34e; stroke: #ffffff; stroke-opacity: 0.2; stroke-width: 0.35"/>
    <path d="M 46.08 25.92 
L 57.6 25.92 
L 57.6 20.64 
L 46.08 20.64 
L 46.08 25.92 
" clip-path="url(#pd3aff8a48a)" style="fill: #44bf70; stroke: #ffffff; stroke-opacity: 0.2; stroke-width: 0.35"/>
    <path d="M 57.6 25.92 
L 69.12 25.92 
L 69.12 20.64 
L 57.6 20.64 
L 57.6 25.92 
" clip-path="url(#pd3aff8a48a)" style="fill: #1f9e89; stroke: #ffffff; stroke-opacity: 0.2; stroke-width: 0.35"/>
    <path d="M 69.12 25.92 
L 80.64 25.92 
L 80.64 20.64 
L 69.12 20.64 
L 69.12 25.92 
" clip-path="url(#pd3aff8a48a)" style="fill: #34608d; stroke: #ffffff; stroke-opacity: 0.2; stroke-width: 0.35"/>
    <path d="M 11.52 20.64 
L 23.04 20.64 
L 23.04 15.36 
L 11.52 15.36 
L 11.52 20.64 
" clip-path="url(#pd3aff8a48a)" style="fill: #a8db34; stroke: #ffffff; stroke-opacity: 0.2; stroke-width: 0.35"/>
    <path d="M 23.04 20.64 
L 34.56 20.64 
L 34.56 15.36 
L 23.04 15.36 
L 23.04 20.64 
" clip-path="url(#pd3aff8a48a)" style="fill: #7ad151; stroke: #ffffff; stroke-opacity: 0.2; stroke-width: 0.35"/>
    <path d="M 34.56 20.64 
L 46.08 20.64 
L 46.08 15.36 
L 34.56 15.36 
L 34.56 20.64 
" clip-path="url(#pd3aff8a48a)" style="fill: #42be71; stroke: #ffffff; stroke-opacity: 0.2; stroke-width: 0.35"/>
    <path d="M 46.08 20.64 
L 57.6 20.64 
L 57.6 15.36 
L 46.08 15.36 
L 46.08 20.64 
" clip-path="url(#pd3aff8a48a)" style="fill: #1e9d89; stroke: #ffffff; stroke-opacity: 0.2; stroke-width: 0.35"/>
    <path d="M 57.6 20.64 
L 69.12 20.64 
L 69.12 15.36 
L 57.6 15.36 
L 57.6 20.64 
" clip-path="url(#pd3aff8a48a)" style="fill: #32658e; stroke: #ffffff; stroke-opacity: 0.2; stroke-width: 0.35"/>
    <path d="M 69.12 20.64 
L 80.64 20.64 
L 80.64 15.36 
L 69.12 15.36 
L 69.12 20.64 
" clip-path="url(#pd3aff8a48a)" style="fill: #443a83; stroke: #ffffff; stroke-opacity: 0.2; stroke-width: 0.35"/>
    <path d="M 11.52 15.36 
L 23.04 15.36 
L 23.04 10.08 
L 11.52 10.08 
L 11.52 15.36 
" clip-path="url(#pd3aff8a48a)" style="fill: #7ad151; stroke: #ffffff; stroke-opacity: 0.2; stroke-width: 0.35"/>
    <path d="M 23.04 15.36 
L 34.56 15.36 
L 34.56 10.08 
L 23.04 10.08 
L 23.04 15.36 
" clip-path="url(#pd3aff8a48a)" style="fill: #38b977; stroke: #ffffff; stroke-opacity: 0.2; stroke-width: 0.35"/>
    <path d="M 34.56 15.36 
L 46.08 15.36 
L 46.08 10.08 
L 34.56 10.08 
L 34.56 15.36 
" clip-path="url(#pd3aff8a48a)" style="fill: #20938c; stroke: #ffffff; stroke-opacity: 0.2; stroke-width: 0.35"/>
    <path d="M 46.08 15.36 
L 57.6 15.36 
L 57.6 10.08 
L 46.08 10.08 
L 46.08 15.36 
" clip-path="url(#pd3aff8a48a)" style="fill: #2f6c8e; stroke: #ffffff; stroke-opacity: 0.2; stroke-width: 0.35"/>
    <path d="M 57.6 15.36 
L 69.12 15.36 
L 69.12 10.08 
L 57.6 10.08 
L 57.6 15.36 
" clip-path="url(#pd3aff8a48a)" style="fill: #472a7a; stroke: #ffffff; stroke-opacity: 0.2; stroke-width: 0.35"/>
    <path d="M 69.12 15.36 
L 80.64 15.36 
L 80.64 10.08 
L 69.12 10.08 
L 69.12 15.36 
" clip-path="url(#pd3aff8a48a)" style="fill: #440154; stroke: #ffffff; stroke-opacity: 0.2; stroke-width: 0.35"/>
   </g>
   <g id="matplotlib.axis_1">
    <g id="xtick_1">
     <g id="line2d_1">
      <defs>
       <path id="m0c8f4c786d" d="M 0 0 
L 0 2.1 
" style="stroke: #64748b; stroke-width: 0.8"/>
      </defs>
      <g>
       <use xlink:href="#m0c8f4c786d" x="32.256" y="57.6" style="fill: #64748b; stroke: #64748b; stroke-width: 0.8"/>
      </g>
     </g>
    </g>
    <g id="xtick_2">
     <g id="line2d_2">
      <g>
       <use xlink:href="#m0c8f4c786d" x="66.816" y="57.6" style="fill: #64748b; stroke: #64748b; stroke-width: 0.8"/>
      </g>
     </g>
    </g>
   </g>
   <g id="matplotlib.axis_2">
    <g id="ytick_1">
     <g id="line2d_3">
      <defs>
       <path id="m3c512fdeb2" d="M 0 0 
L -2.1 0 
" style="stroke: #64748b; stroke-width: 0.8"/>
      </defs>
      <g>
       <use xlink:href="#m3c512fdeb2" x="11.52" y="45.984" style="fill: #64748b; stroke: #64748b; stroke-width: 0.8"/>
      </g>
     </g>
    </g>
    <g id="ytick_2">
     <g id="line2d_4">
      <g>
       <use xlink:href="#m3c512fdeb2" x="11.52" y="22.752" style="fill: #64748b; stroke: #64748b; stroke-width: 0.8"/>
      </g>
     </g>
    </g>
   </g>
   <g id="patch_3">
    <path d="M 11.52 57.6 
L 11.52 10.08 
" style="fill: none; stroke: #64748b; stroke-width: 0.8; stroke-linejoin: miter; stroke-linecap: square"/>
   </g>
   <g id="patch_4">
    <path d="M 80.64 57.6 
L 80.64 10.08 
" style="fill: none; stroke: #d1d5db; stroke-width: 0.7; stroke-linejoin: miter; stroke-linecap: square"/>
   </g>
   <g id="patch_5">
    <path d="M 11.52 57.6 
L 80.64 57.6 
" style="fill: none; stroke: #64748b; stroke-width: 0.8; stroke-linejoin: miter; stroke-linecap: square"/>
   </g>
   <g id="patch_6">
    <path d="M 11.52 10.08 
L 80.64 10.08 
" style="fill: none; stroke: #d1d5db; stroke-width: 0.7; stroke-linejoin: miter; stroke-linecap: square"/>
   </g>
  </g>
  <g id="text_1">
   <text style="fill: #6b7280; font: 7px 'Arial', 'Helvetica', 'DejaVu Sans', sans-serif; text-anchor: end" x="91.68" y="68.59275" transform="rotate(-0 91.68 68.59275)">N=1,944</text>
  </g>
 </g>
 <defs>
  <clipPath id="pd3aff8a48a">
   <rect x="11.52" y="10.08" width="69.12" height="47.52"/>
  </clipPath>
 </defs>
</svg>
